<svg width="60" height="59" viewBox="0 0 60 59" fill="none" xmlns="http://www.w3.org/2000/svg">
<path fill-rule="evenodd" clip-rule="evenodd" d="M59.1209 29.5C59.1209 45.6683 46.014 58.7752 29.8457 58.7752C13.6775 58.7752 0.570557 45.6683 0.570557 29.5C0.570557 13.3318 13.6775 0.224854 29.8457 0.224854C46.014 0.224854 59.1209 13.3318 59.1209 29.5ZM38.8636 16.953H31.1527H25.0101L23.9646 11.3333L19.3903 23.2263H21.4814H26.0557H28.6695H36.3804L33.7665 29.4995H40.6932L43.1764 23.2263C44.3526 20.2204 42.1309 16.953 38.9943 16.953H38.8636ZM40.1706 35.7725H38.2102H33.5052H31.2835H23.5726L26.0558 29.4993H18.9984L16.5152 35.7725C15.339 38.7784 17.5607 42.0458 20.6974 42.0458H21.0894H28.8003H34.6815L35.727 47.6655L40.1706 35.7725Z" fill="white"/>
</svg>
